<svg xmlns="http://www.w3.org/2000/svg" width="1600" height="620" viewBox="0 0 1600 620" role="img" aria-labelledby="title desc">
  <title id="title">Cosmic Synapse Theory 12D</title>
  <desc id="desc">A dark scientific visualization of a twelve-channel synaptic field surrounding a luminous CST core.</desc>
  <defs>
    <linearGradient id="bg" x1="0" y1="0" x2="1" y2="1"><stop offset="0" stop-color="#03040a"/><stop offset="0.48" stop-color="#080d1d"/><stop offset="1" stop-color="#05030e"/></linearGradient>
    <radialGradient id="core" cx="50%" cy="50%" r="50%"><stop offset="0" stop-color="#ffffff"/><stop offset="0.12" stop-color="#8ff4ff"/><stop offset="0.38" stop-color="#6e86ff" stop-opacity="0.8"/><stop offset="0.72" stop-color="#a855f7" stop-opacity="0.18"/><stop offset="1" stop-color="#a855f7" stop-opacity="0"/></radialGradient>
    <linearGradient id="spectrum" x1="0" y1="0" x2="1" y2="0"><stop offset="0" stop-color="#69f0ff"/><stop offset="0.5" stop-color="#8b8cff"/><stop offset="1" stop-color="#f06cff"/></linearGradient>
    <filter id="glow" x="-100%" y="-100%" width="300%" height="300%"><feGaussianBlur stdDeviation="8" result="b"/><feMerge><feMergeNode in="b"/><feMergeNode in="SourceGraphic"/></feMerge></filter>
    <pattern id="grid" width="42" height="42" patternUnits="userSpaceOnUse"><path d="M42 0H0V42" fill="none" stroke="#9ddcff" stroke-opacity="0.035" stroke-width="1"/></pattern>
  </defs>
  <rect width="1600" height="620" rx="28" fill="url(#bg)"/><rect width="1600" height="620" rx="28" fill="url(#grid)"/>
  <g opacity="0.55" fill="#bdefff"><circle cx="88" cy="90" r="1.2"/><circle cx="190" cy="482" r="1"/><circle cx="347" cy="84" r="1.4"/><circle cx="524" cy="520" r="1.2"/><circle cx="757" cy="67" r="1"/><circle cx="936" cy="524" r="1.5"/><circle cx="1098" cy="101" r="1.2"/><circle cx="1264" cy="486" r="1"/><circle cx="1472" cy="118" r="1.3"/><circle cx="1378" cy="300" r="1"/><circle cx="1118" cy="363" r="1.2"/><circle cx="621" cy="153" r="1"/></g>
  <g transform="translate(1125 310)">
    <circle r="222" fill="none" stroke="#74e7ff" stroke-opacity="0.07"/><circle r="174" fill="none" stroke="#a58bff" stroke-opacity="0.09"/><circle r="126" fill="none" stroke="#ef76df" stroke-opacity="0.08"/><circle r="78" fill="url(#core)" opacity="0.96" filter="url(#glow)"/><circle r="10" fill="#fff" filter="url(#glow)"/>
    <g stroke="url(#spectrum)" stroke-opacity="0.36" stroke-width="1.4" fill="none"><path d="M0 0L0 -222"/><path d="M0 0L111 -192"/><path d="M0 0L192 -111"/><path d="M0 0L222 0"/><path d="M0 0L192 111"/><path d="M0 0L111 192"/><path d="M0 0L0 222"/><path d="M0 0L-111 192"/><path d="M0 0L-192 111"/><path d="M0 0L-222 0"/><path d="M0 0L-192 -111"/><path d="M0 0L-111 -192"/><path d="M0 -222L192 -111L192 111L0 222L-192 111L-192 -111Z" stroke-opacity="0.18"/><path d="M111 -192L222 0L111 192L-111 192L-222 0L-111 -192Z" stroke-opacity="0.12"/></g>
    <g fill="#0a0d18" stroke-width="2" font-family="ui-monospace, SFMono-Regular, Menlo, monospace" font-size="12" text-anchor="middle" dominant-baseline="middle">
      <g stroke="#73efff"><circle cy="-222" r="16"/><text y="-222" fill="#dffcff" stroke="none">01</text></g><g stroke="#78ddff"><circle cx="111" cy="-192" r="16"/><text x="111" y="-192" fill="#dffcff" stroke="none">02</text></g><g stroke="#7bc9ff"><circle cx="192" cy="-111" r="16"/><text x="192" y="-111" fill="#e6f8ff" stroke="none">03</text></g><g stroke="#82b3ff"><circle cx="222" r="16"/><text x="222" fill="#eef5ff" stroke="none">04</text></g><g stroke="#899cff"><circle cx="192" cy="111" r="16"/><text x="192" y="111" fill="#f0f1ff" stroke="none">05</text></g><g stroke="#9489ff"><circle cx="111" cy="192" r="16"/><text x="111" y="192" fill="#f2efff" stroke="none">06</text></g><g stroke="#a57cff"><circle cy="222" r="16"/><text y="222" fill="#f7edff" stroke="none">07</text></g><g stroke="#b870f6"><circle cx="-111" cy="192" r="16"/><text x="-111" y="192" fill="#fceaff" stroke="none">08</text></g><g stroke="#ca69ec"><circle cx="-192" cy="111" r="16"/><text x="-192" y="111" fill="#ffe9fb" stroke="none">09</text></g><g stroke="#db68df"><circle cx="-222" r="16"/><text x="-222" fill="#ffe9f7" stroke="none">10</text></g><g stroke="#e86fd4"><circle cx="-192" cy="-111" r="16"/><text x="-192" y="-111" fill="#ffebf7" stroke="none">11</text></g><g stroke="#f27dcc"><circle cx="-111" cy="-192" r="16"/><text x="-111" y="-192" fill="#ffedf7" stroke="none">12</text></g>
    </g><text x="0" y="4" text-anchor="middle" fill="#060712" font-family="Arial, Helvetica, sans-serif" font-size="22" font-weight="900">CST</text>
  </g>
  <g transform="translate(105 128)" font-family="Arial, Helvetica, sans-serif"><text x="0" y="0" fill="#77e8ff" font-size="17" font-weight="700" letter-spacing="5">NAVISWORLD / RESEARCH</text><text x="0" y="96" fill="#f7f9ff" font-size="84" font-weight="900" letter-spacing="-5">COSMIC</text><text x="0" y="174" fill="#f7f9ff" font-size="84" font-weight="900" letter-spacing="-5">SYNAPSE</text><text x="0" y="252" fill="url(#spectrum)" font-size="84" font-weight="900" letter-spacing="-5">THEORY</text><text x="4" y="302" fill="#aebbd3" font-size="19" letter-spacing="1.1">12-CHANNEL STATE · MEMORY · COUPLING · SIGNAL · EVIDENCE</text><rect x="4" y="339" width="620" height="1" fill="url(#spectrum)" opacity="0.42"/><text x="4" y="382" fill="#d9e0ec" font-size="19" font-family="ui-monospace, SFMono-Regular, Menlo, monospace">state(t+1) = F(state, input, memory, neighbors)</text></g>
  <g transform="translate(106 558)" font-family="ui-monospace, SFMono-Regular, Menlo, monospace" font-size="13" letter-spacing="1.6"><text fill="#6ee7b7">IMPLEMENTED</text><text x="132" fill="#8fa0bd">/</text><text x="158" fill="#8fa0bd">MEASURABLE</text><text x="286" fill="#8fa0bd">/</text><text x="312" fill="#8fa0bd">FALSIFIABLE</text><text x="454" fill="#8fa0bd">/</text><text x="480" fill="#f0a6ff">HYPOTHESIS ≠ PROOF</text></g>
</svg>
